<svg width="31" height="30" viewBox="0 0 31 30" fill="none" xmlns="http://www.w3.org/2000/svg">
<path d="M28.4536 19.153H23.5262V3.32761H26.6203V4.72643H25.5527C25.4591 4.72595 25.3664 4.74461 25.2798 4.78135C25.1931 4.81808 25.1144 4.87217 25.0479 4.94051C24.9815 5.00886 24.9287 5.09012 24.8926 5.17965C24.8564 5.26918 24.8377 5.36521 24.8374 5.46227V11.1377C24.8374 11.235 24.8559 11.3312 24.8919 11.4211C24.9279 11.5109 24.9806 11.5924 25.0471 11.661C25.1136 11.7296 25.1925 11.7839 25.2792 11.8208C25.366 11.8577 25.4589 11.8764 25.5527 11.876H28.8306C29.0194 11.876 29.2004 11.7982 29.3339 11.6597C29.4674 11.5213 29.5424 11.3335 29.5424 11.1377V5.46227C29.5418 5.26689 29.4665 5.07973 29.3331 4.9418C29.1997 4.80388 29.019 4.72643 28.8306 4.72643H28.0439V2.58934C28.0439 2.49239 28.0255 2.39639 27.9897 2.30682C27.9539 2.21725 27.9015 2.13586 27.8354 2.06731C27.7693 1.99875 27.6909 1.94437 27.6045 1.90727C27.5182 1.87017 27.4256 1.85107 27.3321 1.85107H18.2944C18.1057 1.85107 17.9246 1.92886 17.7911 2.06731C17.6576 2.20576 17.5826 2.39354 17.5826 2.58934V4.72643H16.7959C16.608 4.72707 16.4279 4.8048 16.295 4.94266C16.1621 5.08052 16.0871 5.26731 16.0865 5.46227V11.1377C16.0868 11.3334 16.1619 11.521 16.2953 11.6594C16.4287 11.7978 16.6096 11.8756 16.7983 11.876H20.0762C20.265 11.876 20.446 11.7982 20.5795 11.6597C20.713 11.5213 20.788 11.3335 20.788 11.1377V5.46227C20.788 5.26647 20.713 5.07869 20.5795 4.94023C20.446 4.80178 20.265 4.724 20.0762 4.724H19.0085V3.32761H22.1027V19.153H12.5885V17.5283C12.5885 16.6797 12.2637 15.8658 11.6856 15.2655C11.1074 14.6651 10.3231 14.3273 9.50492 14.3263H1.92355V11.0988C1.92355 10.903 1.84856 10.7153 1.71508 10.5768C1.5816 10.4384 1.40055 10.3606 1.21178 10.3606C1.023 10.3606 0.841959 10.4384 0.708475 10.5768C0.574991 10.7153 0.5 10.903 0.5 11.0988L0.5 29.2507C0.5 29.4465 0.574991 29.6343 0.708475 29.7728C0.841959 29.9112 1.023 29.989 1.21178 29.989C1.40055 29.989 1.5816 29.9112 1.71508 29.7728C1.84856 29.6343 1.92355 29.4465 1.92355 29.2507V25.7403H22.1027V28.5185H20.0797C19.8909 28.5185 19.7099 28.5963 19.5764 28.7348C19.4429 28.8732 19.3679 29.061 19.3679 29.2568C19.3679 29.4526 19.4429 29.6404 19.5764 29.7788C19.7099 29.9173 19.8909 29.9951 20.0797 29.9951H25.5527C25.7415 29.9951 25.9225 29.9173 26.056 29.7788C26.1895 29.6404 26.2645 29.4526 26.2645 29.2568C26.2645 29.061 26.1895 28.8732 26.056 28.7348C25.9225 28.5963 25.7415 28.5185 25.5527 28.5185H23.5262V25.7403H29.0764V29.2617C29.0764 29.4575 29.1514 29.6452 29.2849 29.7837C29.4184 29.9221 29.5994 29.9999 29.7882 29.9999C29.977 29.9999 30.158 29.9221 30.2915 29.7837C30.425 29.6452 30.5 29.4575 30.5 29.2617V21.2743C30.4991 20.7118 30.2831 20.1726 29.8995 19.7749C29.5159 19.3773 28.996 19.1536 28.4536 19.153ZM11.1649 19.153H2.06052V15.8077H9.50492C9.94489 15.808 10.3668 15.9894 10.678 16.3119C10.9892 16.6345 11.1643 17.072 11.1649 17.5283V19.153Z" fill="#1067FF"/>
<path d="M1.71515 7.44644H3.90082C4.05664 7.44616 4.20809 7.39293 4.33198 7.29491C4.45587 7.19689 4.54539 7.05946 4.58684 6.90366L5.56905 3.21476L7.99237 10.4311C8.04131 10.5763 8.13267 10.702 8.25375 10.7908C8.37482 10.8796 8.51957 10.927 8.66785 10.9265H8.68307C8.83322 10.923 8.97846 10.8704 9.09808 10.7762C9.2177 10.682 9.30558 10.551 9.34919 10.4019L10.8524 5.24864H12.8425C13.0313 5.24864 13.2123 5.17085 13.3458 5.0324C13.4793 4.89395 13.5543 4.70617 13.5543 4.51037C13.5543 4.31457 13.4793 4.12679 13.3458 3.98834C13.2123 3.84988 13.0313 3.7721 12.8425 3.7721H10.3232C10.1704 3.77209 10.0216 3.8231 9.89894 3.91756C9.77623 4.01203 9.6861 4.14495 9.64187 4.29666L8.61986 7.80221L6.16142 0.493615C6.111 0.345288 6.0163 0.217495 5.89108 0.128803C5.76586 0.0401098 5.61664 -0.00486312 5.46509 0.000417049C5.31355 0.00569722 5.16757 0.0609555 5.04837 0.158164C4.92917 0.255373 4.84295 0.389469 4.80225 0.540971L3.35879 5.9699H1.71983C1.53106 5.9699 1.35002 6.04768 1.21653 6.18614C1.08305 6.32459 1.00806 6.51237 1.00806 6.70817C1.00806 6.90397 1.08305 7.09175 1.21653 7.2302C1.35002 7.36865 1.53106 7.44644 1.71983 7.44644H1.71515Z" fill="#1067FF"/>
</svg>
