<svg width="20" height="21" viewBox="0 0 20 21" fill="none" xmlns="http://www.w3.org/2000/svg">
<path d="M8.33333 15.8221C8.55435 15.8221 8.76631 15.7343 8.92259 15.578C9.07887 15.4217 9.16667 15.2098 9.16667 14.9888V9.98877C9.16667 9.76776 9.07887 9.55579 8.92259 9.39951C8.76631 9.24323 8.55435 9.15544 8.33333 9.15544C8.11232 9.15544 7.90036 9.24323 7.74408 9.39951C7.5878 9.55579 7.5 9.76776 7.5 9.98877V14.9888C7.5 15.2098 7.5878 15.4217 7.74408 15.578C7.90036 15.7343 8.11232 15.8221 8.33333 15.8221ZM16.6667 5.8221H13.3333V4.98877C13.3333 4.32573 13.0699 3.68984 12.6011 3.221C12.1323 2.75216 11.4964 2.48877 10.8333 2.48877H9.16667C8.50363 2.48877 7.86774 2.75216 7.3989 3.221C6.93006 3.68984 6.66667 4.32573 6.66667 4.98877V5.8221H3.33333C3.11232 5.8221 2.90036 5.9099 2.74408 6.06618C2.5878 6.22246 2.5 6.43442 2.5 6.65544C2.5 6.87645 2.5878 7.08841 2.74408 7.24469C2.90036 7.40097 3.11232 7.48877 3.33333 7.48877H4.16667V16.6554C4.16667 17.3185 4.43006 17.9544 4.8989 18.4232C5.36774 18.892 6.00363 19.1554 6.66667 19.1554H13.3333C13.9964 19.1554 14.6323 18.892 15.1011 18.4232C15.5699 17.9544 15.8333 17.3185 15.8333 16.6554V7.48877H16.6667C16.8877 7.48877 17.0996 7.40097 17.2559 7.24469C17.4122 7.08841 17.5 6.87645 17.5 6.65544C17.5 6.43442 17.4122 6.22246 17.2559 6.06618C17.0996 5.9099 16.8877 5.8221 16.6667 5.8221ZM8.33333 4.98877C8.33333 4.76776 8.42113 4.55579 8.57741 4.39951C8.73369 4.24323 8.94565 4.15544 9.16667 4.15544H10.8333C11.0543 4.15544 11.2663 4.24323 11.4226 4.39951C11.5789 4.55579 11.6667 4.76776 11.6667 4.98877V5.8221H8.33333V4.98877ZM14.1667 16.6554C14.1667 16.8765 14.0789 17.0884 13.9226 17.2447C13.7663 17.401 13.5543 17.4888 13.3333 17.4888H6.66667C6.44565 17.4888 6.23369 17.401 6.07741 17.2447C5.92113 17.0884 5.83333 16.8765 5.83333 16.6554V7.48877H14.1667V16.6554ZM11.6667 15.8221C11.8877 15.8221 12.0996 15.7343 12.2559 15.578C12.4122 15.4217 12.5 15.2098 12.5 14.9888V9.98877C12.5 9.76776 12.4122 9.55579 12.2559 9.39951C12.0996 9.24323 11.8877 9.15544 11.6667 9.15544C11.4457 9.15544 11.2337 9.24323 11.0774 9.39951C10.9211 9.55579 10.8333 9.76776 10.8333 9.98877V14.9888C10.8333 15.2098 10.9211 15.4217 11.0774 15.578C11.2337 15.7343 11.4457 15.8221 11.6667 15.8221Z" fill="#EA1C59"/>
</svg>
