<svg width="20" height="21" viewBox="0 0 20 21" fill="none" xmlns="http://www.w3.org/2000/svg">
<path d="M11.6666 10.8223C11.6666 11.7427 10.9204 12.4889 9.9999 12.4889C9.07942 12.4889 8.33323 11.7427 8.33323 10.8223C8.33323 9.90179 9.07942 9.1556 9.9999 9.1556C10.9204 9.1556 11.6666 9.90179 11.6666 10.8223Z" fill="#1067FF"/>
<path fill-rule="evenodd" clip-rule="evenodd" d="M9.9999 3.32227C5.3403 3.32227 1.42505 6.5092 0.314941 10.8223C1.42505 15.1353 5.3403 18.3223 9.9999 18.3223C14.6595 18.3223 18.5747 15.1353 19.6849 10.8223C18.5747 6.5092 14.6595 3.32227 9.9999 3.32227ZM13.3332 10.8223C13.3332 12.6632 11.8408 14.1556 9.9999 14.1556C8.15895 14.1556 6.66657 12.6632 6.66657 10.8223C6.66657 8.98132 8.15895 7.48893 9.9999 7.48893C11.8408 7.48893 13.3332 8.98132 13.3332 10.8223Z" fill="#1067FF"/>
</svg>
