<svg width="25" height="24" viewBox="0 0 25 24" fill="none" xmlns="http://www.w3.org/2000/svg">
<path d="M24.5 6.85714V4.28571C24.5 3.60373 24.2291 2.94968 23.7468 2.46744C23.2646 1.9852 22.6106 1.71429 21.9286 1.71429H18.5V0.857143C18.5 0.629814 18.4097 0.411797 18.2489 0.251051C18.0882 0.0903058 17.8702 0 17.6429 0C17.4155 0 17.1975 0.0903058 17.0368 0.251051C16.876 0.411797 16.7857 0.629814 16.7857 0.857143V1.71429H8.21429V0.857143C8.21429 0.629814 8.12398 0.411797 7.96323 0.251051C7.80249 0.0903058 7.58447 0 7.35714 0C7.12981 0 6.9118 0.0903058 6.75105 0.251051C6.59031 0.411797 6.5 0.629814 6.5 0.857143V1.71429H3.07143C2.38944 1.71429 1.73539 1.9852 1.25315 2.46744C0.770918 2.94968 0.5 3.60373 0.5 4.28571V6.85714H24.5ZM0.5 8.57143V21.4286C0.5 22.1106 0.770918 22.7646 1.25315 23.2468C1.73539 23.7291 2.38944 24 3.07143 24H21.9286C22.6106 24 23.2646 23.7291 23.7468 23.2468C24.2291 22.7646 24.5 22.1106 24.5 21.4286V8.57143H0.5ZM17.3429 13.5077L11.3429 18.6506C11.1789 18.7908 10.968 18.864 10.7524 18.8556C10.5368 18.8472 10.3323 18.7577 10.1797 18.6051L7.60829 16.0337C7.45215 15.8721 7.36576 15.6555 7.36771 15.4308C7.36966 15.2061 7.45981 14.9911 7.61873 14.8322C7.77765 14.6732 7.99263 14.5831 8.21737 14.5811C8.44211 14.5792 8.65863 14.6656 8.82029 14.8217L10.8311 16.8326L16.2311 12.204C16.3161 12.1274 16.4156 12.0686 16.5237 12.031C16.6317 11.9935 16.7462 11.9779 16.8604 11.9853C16.9746 11.9927 17.0861 12.0229 17.1885 12.0741C17.2908 12.1253 17.3818 12.1964 17.4562 12.2834C17.5306 12.3703 17.5869 12.4712 17.6216 12.5802C17.6564 12.6892 17.669 12.8041 17.6587 12.918C17.6483 13.032 17.6153 13.1427 17.5615 13.2437C17.5077 13.3447 17.4342 13.4339 17.3454 13.506L17.3429 13.5077Z" fill="#1067FF"/>
</svg>
