<svg width="24" height="25" viewBox="0 0 24 25" fill="none" xmlns="http://www.w3.org/2000/svg">
<path d="M3.00005 17.8223C3 17.7578 3 17.6912 3 17.6225V8.02246C3 6.90236 3 6.34189 3.21799 5.91406C3.40973 5.53774 3.71547 5.232 4.0918 5.04025C4.51962 4.82227 5.08009 4.82227 6.2002 4.82227H17.8002C18.9203 4.82227 19.4801 4.82227 19.9079 5.04025C20.2842 5.232 20.5905 5.53774 20.7822 5.91406C21 6.34147 21 6.90126 21 8.01918V17.6254C21 18.1104 21 18.4902 20.9822 18.7997M3.00005 17.8223C3.00082 18.8107 3.01337 19.3281 3.21799 19.7297C3.40973 20.106 3.71547 20.4127 4.0918 20.6045C4.5192 20.8223 5.07899 20.8223 6.19691 20.8223H17.8036C18.9215 20.8223 19.4805 20.8223 19.9079 20.6045C20.2842 20.4127 20.5905 20.106 20.7822 19.7297C20.9055 19.4877 20.959 19.2035 20.9822 18.7997M3.00005 17.8223L7.76798 12.2598L7.76939 12.2582C8.19227 11.7649 8.40406 11.5178 8.65527 11.4287C8.87594 11.3505 9.11686 11.3523 9.33643 11.4336C9.58664 11.5262 9.79506 11.7761 10.2119 12.2764L12.8831 15.4818C13.269 15.9448 13.463 16.1777 13.6986 16.2711C13.9065 16.3536 14.1357 16.3629 14.3501 16.2996C14.5942 16.2276 14.8091 16.0127 15.2388 15.583L15.7358 15.0859C16.1733 14.6484 16.3921 14.4299 16.6397 14.3584C16.8571 14.2956 17.0896 14.3091 17.2988 14.3955C17.537 14.4939 17.7302 14.7346 18.1167 15.2178L20.9822 18.7997M20.9822 18.7997L21 18.8219M15 10.8223C14.4477 10.8223 14 10.3746 14 9.82227C14 9.26998 14.4477 8.82227 15 8.82227C15.5523 8.82227 16 9.26998 16 9.82227C16 10.3746 15.5523 10.8223 15 10.8223Z" stroke="#1067FF" stroke-width="2" stroke-linecap="round" stroke-linejoin="round"/>
</svg>
