<svg width="16" height="17" viewBox="0 0 16 17" fill="none" xmlns="http://www.w3.org/2000/svg">
<path d="M14.5518 7.18166H1.62524M10.9611 1.43652V4.30909M5.21595 1.43652V4.30909M5.07232 15.7994H11.1047C12.3113 15.7994 12.9146 15.7994 13.3755 15.5645C13.7808 15.358 14.1104 15.0284 14.317 14.623C14.5518 14.1622 14.5518 13.5589 14.5518 12.3523V6.31989C14.5518 5.1133 14.5518 4.51 14.317 4.04914C14.1104 3.64376 13.7808 3.31418 13.3755 3.10762C12.9146 2.87281 12.3113 2.87281 11.1047 2.87281H5.07232C3.86573 2.87281 3.26244 2.87281 2.80158 3.10762C2.3962 3.31418 2.06661 3.64376 1.86006 4.04914C1.62524 4.51 1.62524 5.1133 1.62524 6.31989V12.3523C1.62524 13.5589 1.62524 14.1622 1.86006 14.623C2.06661 15.0284 2.3962 15.358 2.80158 15.5645C3.26244 15.7994 3.86573 15.7994 5.07232 15.7994Z" stroke="#475467" stroke-width="1.4" stroke-linecap="round" stroke-linejoin="round"/>
</svg>
