<svg width="19" height="19" viewBox="0 0 19 19" fill="none" xmlns="http://www.w3.org/2000/svg">
<path d="M5.93762 14.1348L8.31341 15.9741C8.61996 16.2807 9.3097 16.434 9.76953 16.434H12.6818C13.6014 16.434 14.5977 15.7442 14.8276 14.8246L16.667 9.22997C17.0502 8.15704 16.3604 7.23738 15.2108 7.23738H12.1453C11.6855 7.23738 11.3023 6.85419 11.3789 6.31772L11.7621 3.8653C11.9154 3.17556 11.4556 2.40917 10.7658 2.17926C10.1527 1.94935 9.38634 2.2559 9.07979 2.71573L5.93762 7.39066" stroke="#344054" stroke-width="1.37949" stroke-miterlimit="10"/>
<path d="M2.02905 14.1346V6.62409C2.02905 5.55116 2.48888 5.16797 3.56182 5.16797H4.3282C5.40113 5.16797 5.86096 5.55116 5.86096 6.62409V14.1346C5.86096 15.2076 5.40113 15.5908 4.3282 15.5908H3.56182C2.48888 15.5908 2.02905 15.2076 2.02905 14.1346Z" stroke="#344054" stroke-width="1.37949" stroke-linecap="round" stroke-linejoin="round"/>
</svg>
