<svg width="15" height="16" viewBox="0 0 15 16" fill="none" xmlns="http://www.w3.org/2000/svg">
<path d="M3.8269 0.723145V1.75635H3.16968C2.17952 1.75635 1.37378 2.56208 1.37378 3.55225V3.94189C1.3738 4.19243 1.42526 4.43526 1.52612 4.66455L2.85913 7.69482C3.25257 8.589 4.1381 9.1665 5.11499 9.1665C6.09177 9.16637 6.97741 8.58893 7.37085 7.69482L8.70386 4.66455C8.80466 4.43532 8.85618 4.19235 8.8562 3.94189V3.55225C8.8562 2.56222 8.05028 1.75657 7.0603 1.75635H6.40308V0.723145H7.0603C8.62008 0.723378 9.88843 1.99242 9.88843 3.55225V3.94189C9.8884 4.33632 9.80798 4.71954 9.64917 5.08057L8.31616 8.11084C7.82824 9.21981 6.80658 9.98308 5.63159 10.1587V10.7739C5.63159 12.6872 7.18798 14.2446 9.10132 14.2446C11.0146 14.2446 12.571 12.6872 12.571 10.7739V8.7915C11.8262 8.56847 11.281 7.87885 11.281 7.06201C11.2812 6.06579 12.0914 5.25552 13.0876 5.25537C14.084 5.25537 14.8951 6.0657 14.8953 7.06201C14.8953 7.87913 14.3495 8.56969 13.6042 8.79248V10.7739C13.6042 13.257 11.5844 15.2778 9.10132 15.2778C6.61817 15.2778 4.59839 13.257 4.59839 10.7739V10.1587C3.42315 9.98326 2.40085 9.22001 1.91284 8.11084L0.579834 5.08057C0.421064 4.71958 0.340599 4.3363 0.340576 3.94189V3.55225C0.340576 1.99228 1.60971 0.723145 3.16968 0.723145H3.8269ZM13.0876 6.28857C12.6612 6.28872 12.3144 6.63563 12.3142 7.06201C12.3142 7.48854 12.6611 7.83628 13.0876 7.83643C13.5143 7.83643 13.8621 7.48863 13.8621 7.06201C13.8619 6.63554 13.5142 6.28857 13.0876 6.28857Z" fill="#475467" stroke="#475467" stroke-width="0.191504"/>
</svg>
