<svg width="14" height="16" viewBox="0 0 14 16" fill="none" xmlns="http://www.w3.org/2000/svg">
<path d="M8.33332 7.3335H4.33332M5.66666 10.0002H4.33332M9.66666 4.66683H4.33332M12.3333 4.5335V11.4668C12.3333 12.5869 12.3333 13.147 12.1153 13.5748C11.9236 13.9511 11.6176 14.2571 11.2413 14.4488C10.8135 14.6668 10.2534 14.6668 9.13332 14.6668H4.86666C3.74655 14.6668 3.1865 14.6668 2.75868 14.4488C2.38235 14.2571 2.07639 13.9511 1.88464 13.5748C1.66666 13.147 1.66666 12.5869 1.66666 11.4668V4.5335C1.66666 3.41339 1.66666 2.85334 1.88464 2.42552C2.07639 2.04919 2.38235 1.74323 2.75868 1.55148C3.1865 1.3335 3.74655 1.3335 4.86666 1.3335H9.13332C10.2534 1.3335 10.8135 1.3335 11.2413 1.55148C11.6176 1.74323 11.9236 2.04919 12.1153 2.42552C12.3333 2.85334 12.3333 3.41339 12.3333 4.5335Z" stroke="#667085" stroke-width="1.4" stroke-linecap="round" stroke-linejoin="round"/>
</svg>
